<mxfile host="app.diagrams.net" modified="2023-06-14T09:50:13.529Z" agent="Mozilla/5.0 (Windows NT 10.0; Win64; x64) AppleWebKit/537.36 (KHTML, like Gecko) Chrome/114.0.0.0 Safari/537.36" etag="S70J7W-aJC_1yKo2tK3t" version="21.3.8" type="device">
  <diagram name="Page-1" id="WZrB9lIAzNhh37S6fosb">
    <mxGraphModel dx="3718" dy="3792" grid="1" gridSize="10" guides="1" tooltips="1" connect="1" arrows="1" fold="1" page="1" pageScale="1" pageWidth="850" pageHeight="1100" background="none" math="0" shadow="0">
      <root>
        <mxCell id="0" />
        <mxCell id="1" parent="0" />
        <mxCell id="GEaZlMduIiLzZ9v6zHsm-18" value="" style="group" vertex="1" connectable="0" parent="1">
          <mxGeometry x="-800" y="-1740" width="2440" height="2610" as="geometry" />
        </mxCell>
        <mxCell id="o0jIitGOzya7J5Qr-R1L-84" value="AWS Cloud" style="points=[[0,0],[0.25,0],[0.5,0],[0.75,0],[1,0],[1,0.25],[1,0.5],[1,0.75],[1,1],[0.75,1],[0.5,1],[0.25,1],[0,1],[0,0.75],[0,0.5],[0,0.25]];outlineConnect=0;gradientColor=none;html=1;whiteSpace=wrap;fontSize=12;fontStyle=0;container=0;pointerEvents=0;collapsible=0;recursiveResize=0;shape=mxgraph.aws4.group;grIcon=mxgraph.aws4.group_aws_cloud_alt;strokeColor=#232F3E;fillColor=none;verticalAlign=top;align=left;spacingLeft=30;fontColor=#232F3E;dashed=0;" parent="GEaZlMduIiLzZ9v6zHsm-18" vertex="1">
          <mxGeometry x="120" y="783" width="2270.9956709956714" height="1630.2142857142856" as="geometry" />
        </mxCell>
        <mxCell id="o0jIitGOzya7J5Qr-R1L-80" value="ASmaazon S3 Bucket" style="sketch=0;points=[[0,0,0],[0.25,0,0],[0.5,0,0],[0.75,0,0],[1,0,0],[0,1,0],[0.25,1,0],[0.5,1,0],[0.75,1,0],[1,1,0],[0,0.25,0],[0,0.5,0],[0,0.75,0],[1,0.25,0],[1,0.5,0],[1,0.75,0]];outlineConnect=0;fontColor=#232F3E;gradientColor=#60A337;gradientDirection=north;fillColor=#277116;strokeColor=#ffffff;dashed=0;verticalLabelPosition=bottom;verticalAlign=top;align=center;html=1;fontSize=12;fontStyle=0;aspect=fixed;shape=mxgraph.aws4.resourceIcon;resIcon=mxgraph.aws4.s3;" parent="GEaZlMduIiLzZ9v6zHsm-18" vertex="1">
          <mxGeometry x="652.9577464788733" y="1994.7857142857138" width="155.18444321635806" height="155.18444321635806" as="geometry" />
        </mxCell>
        <mxCell id="GEaZlMduIiLzZ9v6zHsm-2" style="edgeStyle=orthogonalEdgeStyle;rounded=0;orthogonalLoop=1;jettySize=auto;html=1;entryX=0.5;entryY=0;entryDx=0;entryDy=0;entryPerimeter=0;" edge="1" parent="GEaZlMduIiLzZ9v6zHsm-18" source="o0jIitGOzya7J5Qr-R1L-79" target="o0jIitGOzya7J5Qr-R1L-80">
          <mxGeometry relative="1" as="geometry" />
        </mxCell>
        <mxCell id="o0jIitGOzya7J5Qr-R1L-79" value="CloudFront" style="sketch=0;points=[[0,0,0],[0.25,0,0],[0.5,0,0],[0.75,0,0],[1,0,0],[0,1,0],[0.25,1,0],[0.5,1,0],[0.75,1,0],[1,1,0],[0,0.25,0],[0,0.5,0],[0,0.75,0],[1,0.25,0],[1,0.5,0],[1,0.75,0]];outlineConnect=0;fontColor=#232F3E;gradientColor=#945DF2;gradientDirection=north;fillColor=#5A30B5;strokeColor=#ffffff;dashed=0;verticalLabelPosition=bottom;verticalAlign=top;align=center;html=1;fontSize=12;fontStyle=0;aspect=fixed;shape=mxgraph.aws4.resourceIcon;resIcon=mxgraph.aws4.cloudfront;" parent="GEaZlMduIiLzZ9v6zHsm-18" vertex="1">
          <mxGeometry x="652.9577464788733" y="1566" width="155.18444321635806" height="155.18444321635806" as="geometry" />
        </mxCell>
        <mxCell id="ojlg_8kX3muUZHNlWiil-129" style="edgeStyle=orthogonalEdgeStyle;rounded=0;orthogonalLoop=1;jettySize=auto;html=1;exitX=0;exitY=0.5;exitDx=0;exitDy=0;exitPerimeter=0;" parent="GEaZlMduIiLzZ9v6zHsm-18" source="GEaZlMduIiLzZ9v6zHsm-1" target="o0jIitGOzya7J5Qr-R1L-79" edge="1">
          <mxGeometry relative="1" as="geometry">
            <mxPoint x="1065.3521126760563" y="693.5142857142855" as="sourcePoint" />
            <mxPoint x="711.2792046396033" y="1435.5286813186808" as="targetPoint" />
            <Array as="points">
              <mxPoint x="738.8732394366198" y="1025.3571428571427" />
            </Array>
          </mxGeometry>
        </mxCell>
        <mxCell id="ojlg_8kX3muUZHNlWiil-146" style="edgeStyle=orthogonalEdgeStyle;rounded=0;orthogonalLoop=1;jettySize=auto;html=1;" parent="GEaZlMduIiLzZ9v6zHsm-18" target="GEaZlMduIiLzZ9v6zHsm-3" edge="1">
          <mxGeometry relative="1" as="geometry">
            <mxPoint x="1304.6794184461614" y="1112.146813186813" as="sourcePoint" />
            <mxPoint x="1304.1971830985917" y="1528.714285714285" as="targetPoint" />
          </mxGeometry>
        </mxCell>
        <mxCell id="GEaZlMduIiLzZ9v6zHsm-1" value="Rpute 53" style="sketch=0;points=[[0,0,0],[0.25,0,0],[0.5,0,0],[0.75,0,0],[1,0,0],[0,1,0],[0.25,1,0],[0.5,1,0],[0.75,1,0],[1,1,0],[0,0.25,0],[0,0.5,0],[0,0.75,0],[1,0.25,0],[1,0.5,0],[1,0.75,0]];outlineConnect=0;fontColor=#232F3E;gradientColor=#945DF2;gradientDirection=north;fillColor=#5A30B5;strokeColor=#ffffff;dashed=0;verticalLabelPosition=bottom;verticalAlign=top;align=center;html=1;fontSize=12;fontStyle=0;aspect=fixed;shape=mxgraph.aws4.resourceIcon;resIcon=mxgraph.aws4.route_53;" vertex="1" parent="GEaZlMduIiLzZ9v6zHsm-18">
          <mxGeometry x="1216.0994366197183" y="932.1428571428569" width="155.18444321635806" height="155.18444321635806" as="geometry" />
        </mxCell>
        <mxCell id="GEaZlMduIiLzZ9v6zHsm-3" value="API Gateway" style="sketch=0;points=[[0,0,0],[0.25,0,0],[0.5,0,0],[0.75,0,0],[1,0,0],[0,1,0],[0.25,1,0],[0.5,1,0],[0.75,1,0],[1,1,0],[0,0.25,0],[0,0.5,0],[0,0.75,0],[1,0.25,0],[1,0.5,0],[1,0.75,0]];outlineConnect=0;fontColor=#232F3E;gradientColor=#FF4F8B;gradientDirection=north;fillColor=#BC1356;strokeColor=#ffffff;dashed=0;verticalLabelPosition=bottom;verticalAlign=top;align=center;html=1;fontSize=12;fontStyle=0;aspect=fixed;shape=mxgraph.aws4.resourceIcon;resIcon=mxgraph.aws4.api_gateway;" vertex="1" parent="GEaZlMduIiLzZ9v6zHsm-18">
          <mxGeometry x="1224.9073739406133" y="1566" width="155.18444321635806" height="155.18444321635806" as="geometry" />
        </mxCell>
        <mxCell id="GEaZlMduIiLzZ9v6zHsm-6" value="Lambda" style="sketch=0;points=[[0,0,0],[0.25,0,0],[0.5,0,0],[0.75,0,0],[1,0,0],[0,1,0],[0.25,1,0],[0.5,1,0],[0.75,1,0],[1,1,0],[0,0.25,0],[0,0.5,0],[0,0.75,0],[1,0.25,0],[1,0.5,0],[1,0.75,0]];outlineConnect=0;fontColor=#232F3E;gradientColor=#F78E04;gradientDirection=north;fillColor=#D05C17;strokeColor=#ffffff;dashed=0;verticalLabelPosition=bottom;verticalAlign=top;align=center;html=1;fontSize=12;fontStyle=0;aspect=fixed;shape=mxgraph.aws4.resourceIcon;resIcon=mxgraph.aws4.lambda;" vertex="1" parent="GEaZlMduIiLzZ9v6zHsm-18">
          <mxGeometry x="1224.9073739406133" y="1957.4999999999998" width="155.18444321635806" height="155.18444321635806" as="geometry" />
        </mxCell>
        <mxCell id="GEaZlMduIiLzZ9v6zHsm-11" style="edgeStyle=orthogonalEdgeStyle;rounded=0;orthogonalLoop=1;jettySize=auto;html=1;" edge="1" parent="GEaZlMduIiLzZ9v6zHsm-18" source="GEaZlMduIiLzZ9v6zHsm-3" target="GEaZlMduIiLzZ9v6zHsm-6">
          <mxGeometry relative="1" as="geometry" />
        </mxCell>
        <mxCell id="GEaZlMduIiLzZ9v6zHsm-8" value="Dynamo DB" style="outlineConnect=0;dashed=0;verticalLabelPosition=bottom;verticalAlign=top;align=center;html=1;shape=mxgraph.aws3.dynamo_db;fillColor=#2E73B8;gradientColor=none;" vertex="1" parent="GEaZlMduIiLzZ9v6zHsm-18">
          <mxGeometry x="1215.8141119443937" y="2340.7142857142853" width="173.3774647887324" height="205.07142857142853" as="geometry" />
        </mxCell>
        <mxCell id="GEaZlMduIiLzZ9v6zHsm-12" style="edgeStyle=orthogonalEdgeStyle;rounded=0;orthogonalLoop=1;jettySize=auto;html=1;" edge="1" parent="GEaZlMduIiLzZ9v6zHsm-18" source="GEaZlMduIiLzZ9v6zHsm-6" target="GEaZlMduIiLzZ9v6zHsm-8">
          <mxGeometry relative="1" as="geometry" />
        </mxCell>
        <mxCell id="GEaZlMduIiLzZ9v6zHsm-10" value="" style="sketch=0;points=[[0,0,0],[0.25,0,0],[0.5,0,0],[0.75,0,0],[1,0,0],[0,1,0],[0.25,1,0],[0.5,1,0],[0.75,1,0],[1,1,0],[0,0.25,0],[0,0.5,0],[0,0.75,0],[1,0.25,0],[1,0.5,0],[1,0.75,0]];outlineConnect=0;fontColor=#232F3E;gradientColor=#F54749;gradientDirection=north;fillColor=#C7131F;strokeColor=#ffffff;dashed=0;verticalLabelPosition=bottom;verticalAlign=top;align=center;html=1;fontSize=12;fontStyle=0;aspect=fixed;shape=mxgraph.aws4.resourceIcon;resIcon=mxgraph.aws4.cognito;" vertex="1" parent="GEaZlMduIiLzZ9v6zHsm-18">
          <mxGeometry x="1781.9904225352113" y="1566" width="155.18444321635806" height="155.18444321635806" as="geometry" />
        </mxCell>
        <mxCell id="ojlg_8kX3muUZHNlWiil-128" style="edgeStyle=orthogonalEdgeStyle;rounded=0;orthogonalLoop=1;jettySize=auto;html=1;entryX=0.5;entryY=0;entryDx=0;entryDy=0;entryPerimeter=0;" parent="GEaZlMduIiLzZ9v6zHsm-18" source="GEaZlMduIiLzZ9v6zHsm-1" target="GEaZlMduIiLzZ9v6zHsm-10" edge="1">
          <mxGeometry relative="1" as="geometry">
            <mxPoint x="1871.2394366197184" y="1025.3571428571427" as="sourcePoint" />
            <mxPoint x="1871.84589892295" y="1435.5286813186808" as="targetPoint" />
          </mxGeometry>
        </mxCell>
        <mxCell id="GEaZlMduIiLzZ9v6zHsm-15" value="" style="group" vertex="1" connectable="0" parent="GEaZlMduIiLzZ9v6zHsm-18">
          <mxGeometry x="781.5538391640162" width="1134.4725124943207" height="540.92967032967" as="geometry" />
        </mxCell>
        <mxCell id="ojlg_8kX3muUZHNlWiil-116" value="" style="group" parent="GEaZlMduIiLzZ9v6zHsm-15" vertex="1" connectable="0">
          <mxGeometry y="23.51868131868115" width="1018.9785324852339" height="517.4109890109888" as="geometry" />
        </mxCell>
        <mxCell id="o0jIitGOzya7J5Qr-R1L-10" value="Users" style="sketch=0;outlineConnect=0;fontColor=#232F3E;gradientColor=none;fillColor=#232F3D;strokeColor=none;dashed=0;verticalLabelPosition=bottom;verticalAlign=top;align=center;html=1;fontSize=12;fontStyle=0;aspect=fixed;pointerEvents=1;shape=mxgraph.aws4.users;" parent="ojlg_8kX3muUZHNlWiil-116" vertex="1">
          <mxGeometry y="282.2241758241757" width="152.70149212489633" height="152.70149212489633" as="geometry" />
        </mxCell>
        <mxCell id="ojlg_8kX3muUZHNlWiil-120" value="" style="line;strokeWidth=1;html=1;" parent="ojlg_8kX3muUZHNlWiil-116" vertex="1">
          <mxGeometry x="515.4929577464789" y="362.19342857142857" width="420.16112676056343" height="23.527285714285707" as="geometry" />
        </mxCell>
        <mxCell id="ojlg_8kX3muUZHNlWiil-101" value="" style="group" parent="GEaZlMduIiLzZ9v6zHsm-15" vertex="1" connectable="0">
          <mxGeometry x="906.4084507042251" width="228.06406179009545" height="517.4109890109888" as="geometry" />
        </mxCell>
        <mxCell id="o0jIitGOzya7J5Qr-R1L-9" value="Clients" style="sketch=0;outlineConnect=0;fontColor=#232F3E;gradientColor=none;fillColor=#232F3D;strokeColor=none;dashed=0;verticalLabelPosition=bottom;verticalAlign=top;align=center;html=1;fontSize=12;fontStyle=0;aspect=fixed;pointerEvents=1;shape=mxgraph.aws4.client;" parent="ojlg_8kX3muUZHNlWiil-101" vertex="1">
          <mxGeometry x="29.238982280781467" y="305.7428571428571" width="152.70149212489633" height="148.78606924989901" as="geometry" />
        </mxCell>
        <mxCell id="GEaZlMduIiLzZ9v6zHsm-17" style="edgeStyle=orthogonalEdgeStyle;rounded=0;orthogonalLoop=1;jettySize=auto;html=1;endArrow=none;endFill=0;" edge="1" parent="GEaZlMduIiLzZ9v6zHsm-18" source="GEaZlMduIiLzZ9v6zHsm-1" target="o0jIitGOzya7J5Qr-R1L-10">
          <mxGeometry relative="1" as="geometry">
            <Array as="points">
              <mxPoint x="1302.4788732394368" y="397.09285714285716" />
            </Array>
          </mxGeometry>
        </mxCell>
      </root>
    </mxGraphModel>
  </diagram>
</mxfile>
